<?xml version="1.0" encoding="utf-8"?>
<!-- Generator: Adobe Illustrator 16.0.0, SVG Export Plug-In . SVG Version: 6.00 Build 0)  -->
<!DOCTYPE svg PUBLIC "-//W3C//DTD SVG 1.1//EN" "http://www.w3.org/Graphics/SVG/1.1/DTD/svg11.dtd">
<svg version="1.1" xmlns="http://www.w3.org/2000/svg" xmlns:xlink="http://www.w3.org/1999/xlink" x="0px" y="0px" width="450px"
	 height="450px" viewBox="0 0 450 450" enable-background="new 0 0 450 450" xml:space="preserve">
<g id="Sfondo_bianco" display="none">
	<g display="inline">
		<path fill="#FFFFFF" d="M225.62,403.181c106.561,0,193.254-86.7,193.254-193.269S332.18,16.645,225.62,16.645
			S32.366,103.344,32.366,209.912S119.059,403.181,225.62,403.181z"/>
	</g>
</g>
<g id="Emoji_outline">
	<g>
		<path fill="none" stroke="#FFFFFF" stroke-width="15.3811" stroke-linecap="round" d="M357.747,69.579
			C323.101,36.783,276.357,16.645,225,16.645c-106.561,0-193.254,86.699-193.254,193.268S118.439,403.181,225,403.181
			s193.254-86.7,193.254-193.269c0-37.309-10.626-72.184-29.01-101.755"/>
	</g>
	<path fill="none" stroke="#FFFFFF" stroke-width="8.7892" d="M141.941,178.706"/>
	<g>
		<path fill="#FFFFFF" d="M213.603,184.809c0,0-0.195-0.41-0.562-1.181c-0.367-0.76-0.839-1.937-1.556-3.323
			c-0.348-0.688-0.733-1.449-1.152-2.279c-0.418-0.819-0.944-1.689-1.459-2.617c-0.5-0.938-1.112-1.891-1.753-2.885
			c-0.33-0.492-0.619-1.021-0.977-1.525c-0.359-0.5-0.728-1.012-1.103-1.534c-1.464-2.103-3.27-4.183-5.219-6.261
			c-2.038-1.994-4.262-3.963-6.765-5.611c-0.614-0.428-1.294-0.751-1.93-1.152c-0.326-0.186-0.636-0.406-0.976-0.565l-1.02-0.479
			c-0.683-0.316-1.349-0.681-2.072-0.895c-0.713-0.234-1.399-0.563-2.126-0.756c-2.872-0.888-5.927-1.207-8.907-1.021
			c-0.878,0.056-1.864,0.063-2.441,0.232c-0.68,0.146-1.328,0.197-2.041,0.38c-0.725,0.219-1.449,0.429-2.182,0.616
			c-0.722,0.222-1.414,0.548-2.124,0.809c-2.764,1.231-5.459,2.712-7.789,4.647c-0.624,0.424-1.164,0.953-1.723,1.449
			c-0.542,0.516-1.14,0.963-1.649,1.503c-1.024,1.069-2.08,2.081-2.97,3.206c-0.465,0.549-0.925,1.09-1.377,1.623
			c-0.416,0.566-0.826,1.125-1.229,1.674c-0.863,1.069-1.535,2.215-2.247,3.285c-0.751,1.053-1.296,2.16-1.906,3.179
			c-0.631,1.011-1.108,2.03-1.593,2.98c-1.022,1.884-1.704,3.628-2.375,5.045c-0.624,1.431-1.055,2.589-1.382,3.374
			c-0.331,0.787-0.508,1.208-0.508,1.208s0.004-0.454,0.012-1.304c0.047-0.846-0.003-2.119,0.165-3.709
			c0.192-1.583,0.362-3.545,0.882-5.734c0.222-1.107,0.485-2.283,0.872-3.493c0.373-1.215,0.728-2.517,1.271-3.812
			c0.517-1.308,1.042-2.686,1.753-4.041c0.346-0.685,0.698-1.381,1.056-2.087c0.411-0.682,0.829-1.374,1.252-2.076
			c0.809-1.436,1.888-2.754,2.92-4.162c0.51-0.71,1.146-1.336,1.739-2.009c0.606-0.661,1.196-1.354,1.896-1.958
			c0.678-0.625,1.359-1.264,2.065-1.885c0.759-0.566,1.524-1.137,2.293-1.711c0.752-0.602,1.61-1.074,2.451-1.582
			c0.851-0.492,1.693-1.01,2.625-1.387c0.918-0.396,1.818-0.849,2.77-1.191c0.963-0.32,1.938-0.617,2.917-0.91
			c2.023-0.459,4.489-0.912,6.078-0.93c4.128-0.208,8.3,0.309,12.085,1.705c3.791,1.351,7.18,3.375,10.08,5.682
			c2.896,2.328,5.221,5.007,7.208,7.637c1.878,2.713,3.441,5.379,4.561,7.969c0.57,1.291,1.112,2.517,1.492,3.738
			c0.409,1.209,0.823,2.334,1.068,3.442c0.264,1.103,0.569,2.095,0.733,3.065c0.162,0.961,0.31,1.844,0.444,2.642
			c0.146,0.792,0.196,1.493,0.235,2.109c0.045,0.614,0.084,1.138,0.115,1.562C213.577,184.354,213.603,184.809,213.603,184.809z"/>
	</g>
	<path fill="none" stroke="#FFFFFF" stroke-width="8.7892" d="M172.484,178.706"/>
	<path fill="none" stroke="#FFFFFF" stroke-width="8.7892" d="M157.213,199.471"/>
	<path fill="none" stroke="#FFFFFF" stroke-width="6.5919" d="M418.254,166.441"/>
	<path fill="none" stroke="#FFFFFF" stroke-width="6.5919" d="M36.676,166.441"/>
	<path fill="none" stroke="#FFFFFF" stroke-width="8.7892" d="M147.537,100.516"/>
	<path fill="none" stroke="#FFFFFF" stroke-width="8.7892" d="M302.267,100.516"/>
	<path fill="#FFFFFF" stroke="#FFFFFF" stroke-width="4.3946" stroke-linecap="round" stroke-linejoin="round" d="M83.284,247.254
		l4.829,19.645c0,0-3.671,27.693,137.426,27.693c143.574,0,137.395-28.067,137.395-28.067l5.021-19.271
		c0,0-37.822,31.076-142.336,31.076C121.808,278.33,83.284,247.254,83.284,247.254z"/>
	<path fill="none" stroke="#FFFFFF" stroke-width="8.7892" d="M224.381,284.484"/>
	<g>
		<path fill="#FFFFFF" d="M308.271,183.16c0,0-0.195-0.41-0.562-1.181c-0.367-0.761-0.839-1.937-1.556-3.323
			c-0.348-0.688-0.733-1.449-1.152-2.279c-0.418-0.819-0.944-1.689-1.459-2.617c-0.5-0.938-1.112-1.891-1.753-2.885
			c-0.329-0.492-0.619-1.021-0.977-1.525c-0.359-0.5-0.728-1.012-1.103-1.534c-1.464-2.103-3.27-4.183-5.219-6.261
			c-2.039-1.994-4.262-3.963-6.765-5.611c-0.614-0.428-1.294-0.751-1.93-1.152c-0.326-0.186-0.636-0.406-0.976-0.565l-1.02-0.479
			c-0.683-0.316-1.349-0.681-2.072-0.895c-0.713-0.234-1.399-0.563-2.126-0.756c-2.872-0.888-5.927-1.207-8.907-1.021
			c-0.878,0.056-1.864,0.063-2.441,0.232c-0.68,0.146-1.328,0.197-2.041,0.38c-0.725,0.219-1.449,0.429-2.182,0.616
			c-0.722,0.222-1.414,0.548-2.124,0.809c-2.764,1.231-5.459,2.712-7.789,4.647c-0.624,0.424-1.164,0.953-1.723,1.449
			c-0.542,0.516-1.14,0.963-1.649,1.503c-1.024,1.069-2.08,2.081-2.97,3.206c-0.465,0.549-0.925,1.09-1.377,1.623
			c-0.416,0.566-0.826,1.125-1.229,1.674c-0.863,1.069-1.535,2.215-2.247,3.285c-0.751,1.053-1.296,2.16-1.906,3.179
			c-0.631,1.011-1.108,2.03-1.593,2.98c-1.022,1.884-1.704,3.628-2.375,5.045c-0.624,1.431-1.055,2.589-1.382,3.374
			c-0.331,0.787-0.508,1.208-0.508,1.208s0.004-0.454,0.012-1.304c0.047-0.846-0.003-2.119,0.165-3.709
			c0.192-1.583,0.362-3.545,0.882-5.734c0.222-1.107,0.485-2.283,0.872-3.493c0.373-1.215,0.728-2.517,1.271-3.812
			c0.517-1.308,1.042-2.686,1.753-4.041c0.346-0.685,0.698-1.381,1.056-2.087c0.411-0.682,0.829-1.374,1.252-2.076
			c0.809-1.436,1.888-2.754,2.92-4.162c0.51-0.71,1.146-1.336,1.739-2.009c0.606-0.661,1.196-1.354,1.896-1.958
			c0.678-0.625,1.359-1.264,2.065-1.885c0.759-0.566,1.524-1.137,2.293-1.711c0.752-0.602,1.61-1.074,2.451-1.582
			c0.851-0.492,1.693-1.01,2.625-1.387c0.918-0.396,1.818-0.849,2.77-1.191c0.963-0.32,1.938-0.617,2.917-0.91
			c2.023-0.459,4.489-0.912,6.078-0.93c4.128-0.209,8.3,0.309,12.086,1.705c3.791,1.351,7.179,3.375,10.079,5.682
			c2.896,2.328,5.221,5.008,7.208,7.637c1.878,2.713,3.441,5.379,4.561,7.969c0.57,1.291,1.112,2.517,1.492,3.738
			c0.409,1.209,0.823,2.334,1.068,3.441c0.264,1.104,0.569,2.096,0.733,3.066c0.162,0.961,0.31,1.844,0.444,2.642
			c0.146,0.792,0.196,1.493,0.235,2.109c0.045,0.614,0.084,1.138,0.115,1.562C308.245,182.706,308.271,183.16,308.271,183.16z"/>
	</g>
	<path fill="#FFFFFF" stroke="#FFFFFF" stroke-width="8.7892" d="M388.08,98.149c0.752,3.376,1.179,6.69,1.327,9.905
		c1.038,22.51-11.547,40.189-21.104,40.189c-10.922,0-26.259-23.198-19.775-50.095c2.672-11.087,6.031-20.758,9.219-28.569
		c5.537-13.57,10.557-21.525,10.557-21.525S381.844,70.191,388.08,98.149z"/>
	<path fill="none" stroke="#FFFFFF" stroke-width="8.7892" stroke-linecap="round" stroke-linejoin="round" d="M83.284,247.254
		c0,23.555,39.075,103.149,141.097,103.149c100.968,0,143.574-79.595,143.574-103.149c0,0-37.038,31.078-143.574,31.078
		C123.178,278.332,83.284,247.254,83.284,247.254z"/>
</g>
</svg>
