<?xml version="1.0" encoding="utf-8"?>
<!-- Generator: Adobe Illustrator 16.0.0, SVG Export Plug-In . SVG Version: 6.00 Build 0)  -->
<!DOCTYPE svg PUBLIC "-//W3C//DTD SVG 1.1//EN" "http://www.w3.org/Graphics/SVG/1.1/DTD/svg11.dtd">
<svg version="1.1" xmlns="http://www.w3.org/2000/svg" xmlns:xlink="http://www.w3.org/1999/xlink" x="0px" y="0px" width="450px"
	 height="450px" viewBox="0 0 450 450" enable-background="new 0 0 450 450" xml:space="preserve">
<g id="Sfondo_bianco" display="none">
	<g display="inline">
		<path fill="#FFFFFF" d="M224.845,403.085c106.561,0,193.254-86.699,193.254-193.268S331.406,16.549,224.845,16.549
			s-193.254,86.7-193.254,193.269S118.285,403.085,224.845,403.085z"/>
	</g>
</g>
<g id="Emoji_outline">
	<g>
		<path fill="none" stroke="#FFFFFF" stroke-width="15.3811" d="M225,403.085c106.561,0,193.254-86.699,193.254-193.268
			S331.561,16.549,225,16.549s-193.254,86.7-193.254,193.269S118.439,403.085,225,403.085z"/>
	</g>
	<path fill="none" stroke="#FFFFFF" stroke-width="8.7892" d="M141.941,178.611"/>
	<path fill="none" stroke="#FFFFFF" stroke-width="8.7892" d="M172.484,178.611"/>
	<path fill="none" stroke="#FFFFFF" stroke-width="8.7892" d="M157.213,199.375"/>
	<path fill="none" stroke="#FFFFFF" stroke-width="6.5919" d="M418.254,166.346"/>
	<path fill="none" stroke="#FFFFFF" stroke-width="6.5919" d="M36.676,166.346"/>
	<path fill="none" stroke="#FFFFFF" stroke-width="8.7892" d="M147.537,100.42"/>
	<path fill="#FFFFFF" stroke="#FFFFFF" stroke-width="6.5919" d="M224.146,139.759c0.562,3.764,0.854,7.615,0.854,11.536
		c0,42.781-34.682,77.463-77.463,77.463c-42.78,0-77.462-27.016-77.462-77.463c0-4.872,11.734-10.784,20.396-11.536"/>
	<path fill="none" stroke="#FFFFFF" stroke-width="8.7892" d="M302.267,100.42"/>
	<path fill="#FFFFFF" stroke="#FFFFFF" stroke-width="6.5919" d="M225.854,139.759c-0.562,3.764-0.854,7.615-0.854,11.536
		c0,42.781,34.682,77.463,77.463,77.463c42.78,0,77.462-30.312,77.462-77.463c0-4.872-11.734-10.784-20.396-11.536h-1.398h-67.244
		h-49.187h-22.082h-67.835H90.472"/>
	<path fill="none" stroke="#FFFFFF" stroke-width="8.7892" stroke-linecap="round" stroke-linejoin="round" d="M83.284,247.158
		c0,23.555,39.693,126.822,141.716,126.822c100.968,0,142.955-103.268,142.955-126.822c0,0-36.419,21.924-142.955,21.924
		C123.798,269.082,83.284,247.158,83.284,247.158z"/>
	<path fill="none" stroke="#FFFFFF" stroke-width="8.7892" d="M225,269.082"/>
</g>
</svg>
