<?xml version="1.0" encoding="utf-8"?>
<!-- Generator: Adobe Illustrator 16.0.0, SVG Export Plug-In . SVG Version: 6.00 Build 0)  -->
<!DOCTYPE svg PUBLIC "-//W3C//DTD SVG 1.1//EN" "http://www.w3.org/Graphics/SVG/1.1/DTD/svg11.dtd">
<svg version="1.1" xmlns="http://www.w3.org/2000/svg" xmlns:xlink="http://www.w3.org/1999/xlink" x="0px" y="0px" width="450px"
	 height="450px" viewBox="0 0 450 450" enable-background="new 0 0 450 450" xml:space="preserve">
<g id="Sfondo_bianco" display="none">
	<g display="inline">
		<path fill="#FFFFFF" d="M225,401.404c106.56,0,193.254-86.699,193.254-193.269c0-106.568-86.694-193.268-193.254-193.268
			c-106.561,0-193.254,86.699-193.254,193.268C31.746,314.705,118.439,401.404,225,401.404z"/>
	</g>
</g>
<g id="Emoji_outline">
	<g>
		<path fill="none" stroke="#FFFFFF" stroke-width="15.3811" d="M224.999,401.404c106.561,0,193.254-86.699,193.254-193.268
			c0-106.569-86.693-193.269-193.254-193.269S31.746,101.567,31.746,208.137C31.746,314.705,118.438,401.404,224.999,401.404z"/>
	</g>
	<path fill="none" stroke="#FFFFFF" stroke-width="8.7892" d="M140.702,176.93"/>
	<path fill="none" stroke="#FFFFFF" stroke-width="8.7892" d="M171.245,176.93"/>
	<path fill="none" stroke="#FFFFFF" stroke-width="8.7892" d="M155.974,197.694"/>
	<path fill="none" stroke="#FFFFFF" stroke-width="6.5919" d="M417.014,164.664"/>
	<path fill="none" stroke="#FFFFFF" stroke-width="6.5919" d="M35.436,164.664"/>
	<path fill="none" stroke="#FFFFFF" stroke-width="15.3811" stroke-linecap="round" d="M202.764,331.26"/>
	<line fill="none" stroke="#FFFFFF" stroke-width="13.1838" x1="105.788" y1="164.664" x2="162.467" y2="92.376"/>
	<line fill="none" stroke="#FFFFFF" stroke-width="13.1838" x1="240.236" y1="92.376" x2="320.642" y2="176.93"/>
	<g>
		<path d="M140.703,164.366c-2.896,0-5.253-2.356-5.253-5.252c0-2.896,2.356-5.253,5.253-5.253c2.896,0,5.252,2.356,5.252,5.253
			C145.955,162.01,143.599,164.366,140.703,164.366z"/>
		<path fill="#FFFFFF" d="M140.703,146.171c-7.148,0-12.943,5.795-12.943,12.943c0,7.147,5.795,12.942,12.943,12.942
			c7.147,0,12.942-5.795,12.942-12.942C153.646,151.966,147.851,146.171,140.703,146.171L140.703,146.171z"/>
	</g>
	<g>
		<path d="M272.592,158.792c-3.039,0-5.511-2.473-5.511-5.512c0-3.038,2.472-5.511,5.511-5.511s5.511,2.473,5.511,5.511
			C278.103,156.319,275.63,158.792,272.592,158.792z"/>
		<path fill="#FFFFFF" d="M272.592,140.079c-7.291,0-13.201,5.91-13.201,13.201s5.91,13.202,13.201,13.202
			s13.201-5.911,13.201-13.202S279.883,140.079,272.592,140.079L272.592,140.079z"/>
	</g>
	<path fill="none" stroke="#FFFFFF" stroke-width="8.7892" stroke-linecap="round" d="M294.192,299.208
		c0,17.659-29.012,12.613-69.192,12.613c-38.215,0-69.194,43.511-69.194-12.613c0-17.658,30.979-38.149,69.194-38.149
		C263.214,261.059,294.192,281.55,294.192,299.208z"/>
</g>
</svg>
